<svg xmlns="http://www.w3.org/2000/svg" viewBox="0 0 64 64">
  <defs>
    <linearGradient id="bg" x1="0" y1="0" x2="1" y2="1">
      <stop offset="0%" stop-color="#f97316"/>
      <stop offset="100%" stop-color="#f59e0b"/>
    </linearGradient>
  </defs>
  <!-- Background -->
  <rect width="64" height="64" rx="14" fill="url(#bg)"/>
  <!-- Left page -->
  <path d="M8 18C8 14 12 13 30.5 14.5L30.5 50C14 50 8 48 8 44Z" fill="white"/>
  <!-- Right page -->
  <path d="M56 18C56 14 52 13 33.5 14.5L33.5 50C50 50 56 48 56 44Z" fill="white" fill-opacity="0.82"/>
  <!-- Spine -->
  <path d="M30.5 14.5C30.5 14.5 32 13.8 33.5 14.5L33.5 50L30.5 50Z" fill="rgba(194,65,12,0.2)"/>
  <!-- Lines left page -->
  <line x1="12" y1="24" x2="27" y2="23" stroke="#c2410c" stroke-width="2" stroke-linecap="round" stroke-opacity="0.35"/>
  <line x1="12" y1="31" x2="27" y2="30" stroke="#c2410c" stroke-width="2" stroke-linecap="round" stroke-opacity="0.35"/>
  <line x1="12" y1="38" x2="27" y2="37" stroke="#c2410c" stroke-width="2" stroke-linecap="round" stroke-opacity="0.35"/>
  <!-- Lines right page -->
  <line x1="37" y1="24" x2="52" y2="23" stroke="#c2410c" stroke-width="2" stroke-linecap="round" stroke-opacity="0.28"/>
  <line x1="37" y1="31" x2="52" y2="30" stroke="#c2410c" stroke-width="2" stroke-linecap="round" stroke-opacity="0.28"/>
  <line x1="37" y1="38" x2="52" y2="37" stroke="#c2410c" stroke-width="2" stroke-linecap="round" stroke-opacity="0.28"/>
  <!-- Sparkle top-right -->
  <path d="M49 7L50.2 10.8L54 9.5L51.4 12.2L53 15.5L49 13.8L45 15.5L46.6 12.2L44 9.5L47.8 10.8Z" fill="white" fill-opacity="0.92"/>
</svg>
